<svg width="1598" height="2448" viewBox="0 0 1598 2448" fill="none" xmlns="http://www.w3.org/2000/svg">
<rect x="139" y="336" width="126" height="120" fill="#E68028"/>
<rect y="585" width="126" height="120" fill="#E68028"/>
<rect x="139" y="585" width="126" height="120" fill="#E68028"/>
<rect x="139" y="834" width="126" height="120" fill="#E68028"/>
<rect x="629" y="834" width="126" height="120" fill="#E68028"/>
<rect x="629" y="1088" width="126" height="120" fill="#E68028"/>
<rect x="629" y="1219" width="126" height="120" fill="#E68028"/>
<rect x="491" y="1339" width="126" height="120" fill="#E68028"/>
<rect x="348" y="1219" width="126" height="120" fill="#E68028"/>
<rect x="491" y="1586" width="126" height="120" fill="#E68028"/>
<rect x="629" y="1586" width="126" height="120" fill="#E68028"/>
<rect x="629" y="1717" width="126" height="120" fill="#E68028"/>
<rect x="629" y="1959" width="126" height="120" fill="#E68028"/>
<rect x="629" y="2209" width="126" height="120" fill="#E68028"/>
<rect x="375" y="2209" width="126" height="120" fill="#E68028"/>
<rect x="278" y="585" width="126" height="120" fill="#E68028"/>
<path d="M1590 1793L1531 1728L1559.5 1716.5C1565 1724.17 1576.5 1740.4 1578.5 1744C1580.5 1747.6 1587 1778.17 1590 1793Z" fill="#E68028" stroke="black" stroke-width="5"/>
<path d="M1442 1651L1454.5 1615.5C1470 1608.5 1475 1625.5 1481.5 1630C1488 1634.5 1539 1681 1543 1683.5C1547 1686 1571.5 1716 1573.5 1719.5C1575.5 1723 1568 1732 1566 1738C1564.4 1742.8 1550 1746 1543 1747L1529 1727.5C1513.17 1705.33 1480.2 1659.6 1475 1654C1469.8 1648.4 1450.83 1649.67 1442 1651Z" fill="#E68028" stroke="black" stroke-width="5"/>
<path d="M1317 1678.5V1638L1394.5 1629C1413.33 1624.5 1454.3 1615.7 1467.5 1616.5C1484 1617.5 1463 1636 1459.5 1643C1456.7 1648.6 1449.67 1652 1446.5 1653C1430.5 1655.33 1396.3 1661 1387.5 1665C1378.7 1669 1336.83 1675.67 1317 1678.5Z" fill="#E68028" stroke="black" stroke-width="5"/>
<path d="M1335 1637.5C1329 1633.9 1191.17 1657.33 1123 1669.5L1107 1696L1123 1699H1162.5C1197.83 1695 1276.4 1686.3 1308 1683.5C1339.6 1680.7 1341.17 1666 1338 1659C1339.5 1653.33 1341 1641.1 1335 1637.5Z" fill="#E68028" stroke="black" stroke-width="5"/>
<path d="M1028.5 1691L1035.5 1653L1083.5 1662.5C1094.17 1662.5 1117 1663.3 1123 1666.5C1130.5 1670.5 1118.5 1691 1117.5 1697.5C1116.7 1702.7 1105.5 1706.67 1100 1708L1028.5 1691Z" fill="#E68028" stroke="black" stroke-width="5"/>
<path d="M1556.5 1218.5C1548.1 1221.3 1543.33 1245.67 1542 1257.5C1544.83 1260.5 1551.7 1266.5 1556.5 1266.5C1561.3 1266.5 1573.17 1246.17 1578.5 1236L1592.5 1196.5C1584 1202.67 1564.9 1215.7 1556.5 1218.5Z" fill="#E68028" stroke="black" stroke-width="5"/>
<path d="M1484 1416.5L1469 1389L1542.5 1253.5C1550.33 1252.33 1565.9 1250.7 1565.5 1253.5C1565 1257 1545.5 1303 1542.5 1310.5C1540.1 1316.5 1498.33 1386 1484 1416.5Z" fill="#E68028" stroke="black" stroke-width="5"/>
<path d="M1335.5 1499L1331.5 1468L1419 1411.5C1430.67 1403.67 1458.3 1387.6 1475.5 1386C1497 1384 1489 1416.5 1487.5 1419.5C1486 1422.5 1421.5 1456 1410.5 1460C1401.7 1463.2 1356.83 1487.33 1335.5 1499Z" fill="#E68028" stroke="black" stroke-width="5"/>
<path d="M1134.5 1578.5V1545.5C1145 1546.83 1167 1549.5 1171 1549.5C1175 1549.5 1192 1541.17 1200 1537L1248 1509.5C1276.5 1494 1336.1 1462.5 1346.5 1460.5C1359.5 1458 1354.5 1491 1355 1496.5C1355.5 1502 1307.5 1527.5 1303.5 1533C1299.5 1538.5 1226.5 1564.5 1215.5 1569C1206.7 1572.6 1157.83 1576.83 1134.5 1578.5Z" fill="#E68028" stroke="black" stroke-width="5"/>
<path d="M1060 1593.5L1058 1565C1081.17 1558.33 1130.2 1544.7 1141 1543.5C1154.5 1542 1152 1551.5 1152.5 1557C1153 1562.5 1145.5 1576.5 1141 1579C1137.4 1581 1085.5 1589.5 1060 1593.5Z" fill="#E68028" stroke="black" stroke-width="5"/>
<path d="M1513 803.5C1511 807.9 1510.17 852 1510 873.5C1512.67 874.833 1519.1 877.4 1523.5 877C1529 876.5 1555.5 850.5 1557 848C1558.2 846 1571.17 792.833 1577.5 766.5L1532 840L1536 757C1534.17 759.667 1530.2 765.8 1529 769C1527.5 773 1515.5 798 1513 803.5Z" fill="#E68028" stroke="black" stroke-width="5"/>
<path d="M1493.5 919.5L1434 1102.5C1438.67 1103.67 1448.7 1105.8 1451.5 1105C1455 1104 1488.5 1024.5 1493.5 1016C1498.5 1007.5 1505.5 974 1506 971.5C1506.5 969 1522.5 913 1521.5 908C1520.5 903 1541 873.5 1541 870.5C1541 867.5 1539.5 866.5 1532 863C1524.5 859.5 1520.5 860.5 1515.5 860C1510.5 859.5 1504 880.5 1503 884.5C1502.2 887.7 1496.33 909.167 1493.5 919.5Z" fill="#E68028" stroke="black" stroke-width="5"/>
<path d="M1378 1191L1315.5 1342.5C1320.33 1345.17 1330.6 1350.6 1333 1351C1335.4 1351.4 1354 1313.5 1363 1294.5C1379.5 1260.83 1412.9 1193 1414.5 1191C1416.5 1188.5 1462.5 1100 1464.5 1097C1466.5 1094 1451.5 1089 1441 1086.5C1432.6 1084.5 1422.83 1106.67 1419 1118L1378 1191Z" fill="#E68028" stroke="black" stroke-width="5"/>
<path d="M1112.5 1492.5V1454.5L1158 1436C1200.17 1407.67 1287.2 1348.7 1298 1339.5C1311.5 1328 1330.5 1329.5 1335.5 1331C1340.5 1332.5 1342 1351.5 1340.5 1362C1339 1372.5 1278 1412 1264 1420C1252.8 1426.4 1158.33 1471 1112.5 1492.5Z" fill="#E68028" stroke="black" stroke-width="5"/>
<path d="M1107 1453.5L1046 1485L1049 1517C1065 1515.5 1098.6 1512.3 1105 1511.5C1111.4 1510.7 1122.67 1506.5 1127.5 1504.5C1130 1498 1134.6 1481.6 1133 1468C1131 1451 1124 1449 1121 1448C1118.6 1447.2 1110.67 1451.33 1107 1453.5Z" fill="#E68028" stroke="black" stroke-width="5"/>
<path d="M995.5 781.5C997.9 787.1 1044.83 813.5 1068 826H1080V800.5L1075.5 781.5L1068 762C1057.5 752 1035.8 731.1 1033 727.5C1030.2 723.9 1027.83 729 1027 732L1060.5 800.5H1053.5L1008 775.5C1002.83 775.167 993.1 775.9 995.5 781.5Z" fill="#E68028" stroke="black" stroke-width="5"/>
<path d="M1097 889.5C1100.6 893.1 1126.83 937.333 1139.5 959L1152.5 936C1144 920.5 1127 886.7 1127 875.5C1127 861.5 1086 812.5 1080 810.5C1074 808.5 1058.5 817.5 1057 825C1055.5 832.5 1092.5 885 1097 889.5Z" fill="#E68028" stroke="black" stroke-width="5"/>
<path d="M1160 1045.5C1162 1051.1 1154.83 1084.17 1151 1100L1194 1045.5L1170 992.5L1164.5 965.5L1160 944.5C1157 941.333 1149.6 935.3 1144 936.5C1137 938 1130 947.5 1127.5 955.5C1125 963.5 1157.5 1038.5 1160 1045.5Z" fill="#E68028" stroke="black" stroke-width="5"/>
<path d="M1141 1282.5C1141 1310.9 1068.67 1392 1032.5 1429L946.5 1349L1012 1305L1083 1267C1102.33 1260.33 1141 1254.1 1141 1282.5Z" fill="#E68028" stroke="black" stroke-width="5"/>
<path d="M1228.5 905C1231 893 1242 854 1228.5 847C1215 840 1189 834.5 1182 810C1175 785.5 1145 627 1152 604.5C1159 582 1154.5 545 1172.5 543.5C1179.74 542.896 1192.51 545.808 1205.5 549.679L1219 531.5C1208.67 516.833 1191.5 481.3 1205.5 456.5C1223 425.5 1269.5 375.5 1287 357C1304.5 338.5 1376 146 1379.5 90.5C1382.3 46.1 1392.33 38.6667 1397 40.5C1401.17 41.6667 1409.2 49.5 1408 71.5C1406.8 93.5 1388.5 247.667 1379.5 322L1357.5 456.5L1344 501.5C1344.5 508.5 1348.9 520.4 1362.5 512C1379.5 501.5 1381 478 1389 464.5C1397 451 1429.5 174.5 1431 158.5C1432.2 145.7 1426.17 74.5 1423 40.5C1419 38 1413.4 32.4 1423 30C1435 27 1455 36 1458 45C1461 54 1490 116 1485.5 198C1481.9 263.6 1475.67 509 1473 623.5C1464.67 680.5 1446.4 798.5 1440 814.5C1432 834.5 1413 924 1405 931.5C1397 939 1341 983.5 1337 979C1333.8 975.4 1263.33 928.167 1228.5 905Z" fill="#E68028"/>
<path d="M1205.5 549.679C1192.51 545.808 1179.74 542.896 1172.5 543.5C1154.5 545 1159 582 1152 604.5C1145 627 1175 785.5 1182 810C1189 834.5 1215 840 1228.5 847C1242 854 1231 893 1228.5 905C1263.33 928.167 1333.8 975.4 1337 979C1341 983.5 1397 939 1405 931.5C1413 924 1432 834.5 1440 814.5C1446.4 798.5 1464.67 680.5 1473 623.5C1475.67 509 1481.9 263.6 1485.5 198C1490 116 1461 54 1458 45C1455 36 1435 27 1423 30C1413.4 32.4 1419 38 1423 40.5C1426.17 74.5 1432.2 145.7 1431 158.5C1429.5 174.5 1397 451 1389 464.5C1381 478 1379.5 501.5 1362.5 512C1348.9 520.4 1344.5 508.5 1344 501.5L1357.5 456.5L1379.5 322C1388.5 247.667 1406.8 93.5 1408 71.5C1409.2 49.5 1401.17 41.6667 1397 40.5C1392.33 38.6667 1382.3 46.1 1379.5 90.5C1376 146 1304.5 338.5 1287 357C1269.5 375.5 1223 425.5 1205.5 456.5C1191.5 481.3 1208.67 516.833 1219 531.5L1205.5 549.679ZM1205.5 549.679C1218.34 553.506 1231.38 558.269 1239.5 561.5L1205.5 549.679Z" stroke="black" stroke-width="5"/>
<path d="M1191.5 977.5C1190.7 981.9 1163.83 1074.33 1150.5 1120L1203.5 1191L1259.5 1126C1285.67 1094.67 1341.6 1029.2 1356 1018C1374 1004 1370 999 1371 992.5C1372 986 1351 943.5 1346.5 936.5C1342 929.5 1300 896 1285.5 896C1271 896 1265 897 1254 896C1243 895 1213.5 889.5 1208 892C1202.5 894.5 1192.5 972 1191.5 977.5Z" fill="#E68028" stroke="black" stroke-width="5"/>
<path d="M1028 1362L994.5 1218L1157.5 1081C1167 1100 1186 1139.7 1186 1146.5C1186 1155 1227 1171 1224.5 1187C1222 1203 1165.5 1286 1157.5 1296C1151.1 1304 1068.5 1343.33 1028 1362Z" fill="#E68028" stroke="black" stroke-width="5"/>
<path d="M1004 2209L902 2248L919.5 2321L970.5 2392C1024.83 2371.33 1074.5 2337.5 1099.5 2318.5C1123 2300.64 1133 2287 1134.5 2277.5C1136 2268 1137.5 2217.5 1118.5 2200C1099.5 2182.5 1069 2189 1062 2189.5C1056.4 2189.9 1021 2202.67 1004 2209Z" fill="#E68028" stroke="black" stroke-width="5"/>
<path d="M878 2235.5V2260L842.5 2364.5C853.667 2374.5 879.9 2396.6 895.5 2405C915 2415.5 961 2405 978 2405C995 2405 1006.5 2390 1007.5 2376C1008.3 2364.8 1001.5 2359.33 998 2358C983.5 2345 952.1 2317.9 942.5 2313.5C930.5 2308 920 2297 928 2292.5C936 2288 942 2255 935 2244.5C929.4 2236.1 880.667 2234.83 878 2235.5Z" fill="#E68028" stroke="black" stroke-width="5"/>
<path d="M763.5 2439.5V2290.5V2259L824.5 2251.5L884.5 2259C884.167 2282 885.2 2329.9 892 2337.5C900.5 2347 903.5 2361 902 2378C900.5 2395 887 2404.5 880 2413.5C873 2422.5 843 2436.5 820.5 2443C802.5 2448.2 775 2442.83 763.5 2439.5Z" fill="#E68028" stroke="black" stroke-width="5"/>
<path d="M763.5 2296.5V2192L767.5 2180.5L809.5 2169.5C837.5 2178.83 894.4 2199.9 898 2209.5C902.5 2221.5 889.5 2250.5 884.5 2257C879.5 2263.5 860 2279 838.5 2289.5C821.3 2297.9 781.333 2297.67 763.5 2296.5Z" fill="#E68028" stroke="black" stroke-width="5"/>
<path d="M763.5 2197V2087L791 2074.5L832 2068.5L900.5 2094.5C908.5 2107 925.4 2134.5 929 2144.5C933.5 2157 923 2197 920.5 2203C918 2209 910 2231.5 900.5 2234C891 2236.5 874 2223 862.5 2216C851 2209 838 2193 823 2194C811 2194.8 778.333 2196.33 763.5 2197Z" fill="#E68028" stroke="black" stroke-width="5"/>
<path d="M763.5 2095.5V1990.5L793.5 1976.5H873L941.5 2013.5C944.667 2028 951.3 2059.9 952.5 2071.5C954 2086 941 2115.5 930.5 2125C920 2134.5 911 2127 900.5 2125C890 2123 885 2109.5 869 2101.5C853 2093.5 846 2090 828 2089.5C813.6 2089.1 779 2093.33 763.5 2095.5Z" fill="#E68028" stroke="black" stroke-width="5"/>
<path d="M763.5 2007.5V1933V1909.5L975.5 1922C977.833 1936.83 983.4 1968.6 987 1977C991.5 1987.5 978 2022.5 975.5 2029.5C973 2036.5 951 2040.5 931 2039C911 2037.5 905 2018 893.5 2007.5C882 1997 870 2003.5 864 2002C859.2 2000.8 795.667 2005.17 763.5 2007.5Z" fill="#E68028" stroke="black" stroke-width="5"/>
<path d="M763.5 1933L763 1867.5L766 1838.5L866.5 1836C895.5 1838.17 956.1 1843.3 966.5 1846.5C979.5 1850.5 983 1867.5 986 1872C989 1876.5 1001 1911.5 998.5 1926.5C996 1941.5 986.5 1939.5 951 1943.5C915.5 1947.5 860 1926 834.5 1923.5C814.1 1921.5 778.833 1929.17 763.5 1933Z" fill="#E68028" stroke="black" stroke-width="5"/>
<path d="M810.5 1783C786.1 1783.8 768.333 1793.17 763 1800V1869.5C766.5 1869.5 783.3 1869 818.5 1869C913 1870 951 1849.5 957 1845C961.8 1841.4 968 1811.5 970.5 1797L951 1780.5C914.333 1781 834.9 1782.2 810.5 1783Z" fill="#E68028" stroke="black" stroke-width="5"/>
<path d="M993 1172L763 1177.5V1801.5H768C809 1774 828 1783.5 888 1787.5C936 1790.7 960.667 1810.17 967 1819.5C974.167 1822.33 999.2 1805.2 1042 1714C1095.5 1600 1069.5 1458 1060.5 1410C1053.3 1371.6 1012.5 1235.33 993 1172Z" fill="#E68028" stroke="black" stroke-width="5"/>
<path d="M803 756.5C895.833 640.667 1082.8 406.7 1088 397.5C1094.5 386 1242.5 148.5 1247 132.5C1251.5 116.5 1297 13 1311 3" stroke="black" stroke-width="5"/>
<path d="M773 763L763.5 716.5L763 1343C766.167 1343.83 781.4 1345 815 1343C857 1340.5 915.5 1318 962 1275C1008.5 1232 985 1142 982.5 1129.5C980 1117 929.5 1009 923.5 996.5C917.5 984 843.5 836 840 831.5C837.2 827.9 817.833 780.333 808.5 757L815 716.5L773 763Z" fill="#E68028" stroke="black" stroke-width="5"/>
</svg>
